
<svg xmlns="http://www.w3.org/2000/svg" version="1.1" xmlns:xlink="http://www.w3.org/1999/xlink" preserveAspectRatio="none" x="0px" y="0px" width="155px" height="22px" viewBox="0 0 155 22">
<defs>
<g id="Symbol_2_0_Layer0_0_FILL">
<path fill="#000000" stroke="none" d="
M 29.75 8.2
Q 25.1 7.2 22.25 9.1 18.85 11.45 18.85 17.5 18.85 19.1 19.95 19.85 22.05 21.25 28.5 21.25 34.55 21.25 37.75 19.85 40.6 18.6 40.6 16.65 40.6 14.4 37.15 11.75 33.8 9.1 29.75 8.2
M 21.7 18.75
Q 20.75 18.2 20.75 17.5 20.75 15.8 21.9 13.7 23.2 11.3 25.25 10.25 31 7.35 38.7 16.75 37.75 17.45 37.75 18.2 37.75 18.75 37.35 18.85 36.45 19.2 23.1 19.2
L 21.7 18.75
M 36.95 17.25
L 37.75 16.5 34.9 15.3
Q 32.8 14.4 31.6 14.4
L 31.6 16.85
Q 31.85 17.15 32.85 17.3
L 34.65 17.45 36.95 17.25
M 32.65 3.75
L 32.9 3.55 33 2.85 32.85 2 32.65 1.9 3.65 1.45 0.35 1.65
Q 0 1.8 0 2.35
L 0.2 3.2 0.35 3.3 8 3.75 12.75 3.75 12.75 4 13 10.8 13.2 21 14.4 21.25 15.25 21.05 15.45 20.6 15.6 20.1 15.25 12.2
Q 14.85 6.45 14.2 3.75
L 32.65 3.75
M 63.9 19.85
Q 65.55 18.55 65.55 16.1 65.55 13.5 62.3 10.75 59.1 8 55.2 7.2 50.8 6.25 48.05 8.3 44.8 10.7 44.8 16.85 44.8 17.25 44.95 17.65 45.25 18.6 46.1 19.4 48.7 21.7 55.4 21.7 61.55 21.7 63.9 19.85
M 63.7 16.15
L 63 17.9
Q 61.8 19.7 59.55 19.7 52.55 19.7 49.05 18.55 46.7 17.7 46.7 16.95 46.7 12.45 49.35 10.5 51.6 8.9 55.2 9.5 58.45 10 61.05 11.95 63.7 14 63.7 16.15
M 61.3 17.1
Q 62.25 16.35 62.25 15.6
L 62.2 14.7 62.15 14.4
Q 60.25 13.7 58.45 14.75 56.6 15.75 56.6 17.65
L 58.95 17.9
Q 60.25 17.9 61.3 17.1
M 86.25 10.7
Q 86.25 9.55 85.45 8.55 83.7 6.6 79.2 6.6 76.55 6.6 74.7 7.15
L 71.4 8.25 70.7 7.45 69.7 6.1 69.25 6.3
Q 68.8 6.55 68.8 7.25
L 68.85 12.7
Q 69.1 16.35 70.7 17.9
L 71.35 17.55 71.6 17.3
Q 70.9 14.4 71.15 12.4 71.6 8.6 76.35 8.6 81.1 8.6 83.1 9.4 84.35 9.95 84.35 10.75
L 82.95 13.25
Q 81.5 15.75 81.5 16.4
L 82.45 17
Q 83.5 16.65 84.9 13.95 86.25 11.45 86.25 10.7
M 106.05 19.35
Q 106.05 17.3 103.65 13.95 101.5 10.8 98.5 8.2 95.4 5.5 93.3 5.1 90.95 4.65 90.95 7.55 90.95 8.3 91.25 8.35
L 91.9 8.5
Q 94.2 6.8 97 8.9 98.9 10.35 99.9 12.15 94.75 11.45 93.1 14.35 92.2 15.8 92.35 17.55
L 92.25 18.5
Q 92.25 19.2 92.85 19.75 94.55 21.25 101.6 21.25
L 105.4 20.75
Q 106.05 20.4 106.05 19.35
M 97.65 13.85
Q 99 14.3 100.4 15.7 101.9 17.15 102.75 19.1
L 97.9 19.1 94.25 18.3
Q 94.25 13 97.65 13.85
M 123.25 8.95
L 121.9 9.05 121.15 9.2 121.15 10.25
Q 123.2 11.55 127.3 13.2 129.65 14.2 129.65 15.2
L 129.3 17.25
Q 128.45 19.1 126.15 19.1 121.8 19.1 118.8 17.15 116.4 15.6 116.4 14.4 116.4 13.35 118.7 11.05 121.5 8.2 124.55 8
L 124.85 7.75 124.9 7.1 124.75 6.25 124.55 6.1
Q 119.85 5.1 116.8 9.05 115.7 10.35 115.05 12.05 114.5 13.35 114.5 13.9 114.5 16.1 115.95 17.85 118.8 21.25 126.1 21.25 129.15 21.25 130.6 18.75 131.5 17.2 131.5 15.2 131.5 13 130.05 11.35 127.85 8.95 123.25 8.95
M 128.2 0.95
L 128.05 0.1 127.85 0 95.7 0.5 90.95 0.95
Q 90.05 1.25 90.05 1.9 90.05 2.6 90.2 2.7
L 90.4 2.85 108.65 2.85
Q 108.4 3.65 108.4 5.05 108.4 6.55 109.45 12.65 110.55 19.1 111.25 20.25
L 111.8 20 112.2 19.8 112.2 17.65
Q 111.5 14.6 110.7 9.7
L 109.5 2.8 113.85 2.35 127.85 1.9 128.15 1.65 128.2 0.95
M 155.1 6.8
Q 155.1 5.2 152.75 4.75
L 147.25 4.9
Q 143.95 5.6 141 7 137.8 8.55 136.35 10.4
L 136.25 10.25 135.9 8.7
Q 135.5 7.55 134.85 7.55
L 134.05 7.65 134 8 133.9 8.05 133.85 8.7
Q 133.85 9.25 135.8 14.55 137.8 20.25 138.6 20.25
L 139.4 20.1 139.4 19.9 139.5 19.4 139.5 18.55
Q 139.5 17.8 138.6 15.7 137.65 13.55 137.65 12.65 138 11.15 139.35 9.65 141.9 6.7 146.85 6.7 153.85 6.7 153.55 7.35
L 153.1 7.8 154.15 8 154.9 7.85 154.85 7.55 155.05 7.5 155.1 6.8 Z"/>
</g>
</defs>

<g transform="matrix( 0.999359130859375, 0, 0, 1.013824462890625, 0,0) ">
<g transform="matrix( 1, 0, 0, 1, 0,0) ">
<use xlink:href="#Symbol_2_0_Layer0_0_FILL"/>
</g>
</g>
</svg>
