
<svg xmlns="http://www.w3.org/2000/svg" version="1.1" xmlns:xlink="http://www.w3.org/1999/xlink" preserveAspectRatio="none" x="0px" y="0px" width="24px" height="24px" viewBox="0 0 24 24">
<defs>
<g id="Symbol_12_0_Layer2_0_FILL">
<path fill="#000000" stroke="none" d="
M 476 191
L 472 183 192 152
Q 30 138 0 211
L 20 230 41 247 333 271 441 271 469 258
Q 480 247 480 219 480 196 476 191 Z"/>
</g>

<g id="Symbol_12_0_Layer1_0_FILL">
<path fill="#000000" stroke="none" d="
M 341 151
Q 341 9 326 1 314 -7 294 75 248 265 248 364
L 254 409
Q 265 457 287 480
L 308 470 321 464 332 282 341 151 Z"/>
</g>

<g id="Symbol_12_0_Layer0_0_FILL">
<path fill="#000000" fill-opacity="0.011764705882352941" stroke="none" d="
M 0 0
L 0 480 480 480 480 0 0 0 Z"/>
</g>
</defs>

<g id="btnAddFrame" transform="matrix( 1, 0, 0, 1, 0,0) ">
<g transform="matrix( 0.04998779296875, 0, 0, 0.04998779296875, 0,0) ">
<g transform="matrix( 1, 0, 0, 1, 0,0) ">
<use xlink:href="#Symbol_12_0_Layer2_0_FILL"/>
</g>

<g transform="matrix( 1, 0, 0, 1, 0,0) ">
<use xlink:href="#Symbol_12_0_Layer1_0_FILL"/>
</g>

<g transform="matrix( 1, 0, 0, 1, 0,0) ">
<use xlink:href="#Symbol_12_0_Layer0_0_FILL"/>
</g>
</g>
</g>
</svg>
