
<svg xmlns="http://www.w3.org/2000/svg" version="1.1" xmlns:xlink="http://www.w3.org/1999/xlink" preserveAspectRatio="none" x="0px" y="0px" width="24px" height="24px" viewBox="0 0 24 24">
<defs>
<g id="Symbol_27_0_Layer2_0_FILL">
<path fill="#000000" stroke="none" d="
M 418 169
Q 433 131 433 118 433 30 372 7 317 -13 237 22 158 56 101 121 40 193 40 266 40 290 67 325 109 376 181 376 290 376 371 256 399 216 418 169
M 368 56
Q 396 79 396 120 396 177 345 233 305 277 214 336
L 141 336 92 292
Q 76 278 76 264 76 236 120 177
L 179 92
Q 194 63 230 47 265 31 303 34 343 35 368 56 Z"/>
</g>

<g id="Symbol_27_0_Layer1_0_FILL">
<path fill="#000000" stroke="none" d="
M 421 280
Q 440 239 440 214 440 123 417 179
L 380 279
Q 355 326 286 377 203 439 130 439 92 439 80 349
L 73 287
Q 68 258 58 258
L 45 261 40 264 40 380 49 405 57 439
Q 74 480 134 480 268 480 364 369 399 328 421 280 Z"/>
</g>

<g id="Symbol_27_0_Layer0_0_FILL">
<path fill="#000000" fill-opacity="0.011764705882352941" stroke="none" d="
M 0 0
L 0 480 480 480 480 0 0 0 Z"/>
</g>
</defs>

<g id="btnErase" transform="matrix( 1, 0, 0, 1, 0,0) ">
<g transform="matrix( 0.04998779296875, 0, 0, 0.04998779296875, 0,0) ">
<g transform="matrix( 1, 0, 0, 1, 0,0) ">
<use xlink:href="#Symbol_27_0_Layer2_0_FILL"/>
</g>

<g transform="matrix( 1, 0, 0, 1, 0,0) ">
<use xlink:href="#Symbol_27_0_Layer1_0_FILL"/>
</g>

<g transform="matrix( 1, 0, 0, 1, 0,0) ">
<use xlink:href="#Symbol_27_0_Layer0_0_FILL"/>
</g>
</g>
</g>
</svg>
