
<svg xmlns="http://www.w3.org/2000/svg" version="1.1" xmlns:xlink="http://www.w3.org/1999/xlink" preserveAspectRatio="none" x="0px" y="0px" width="24px" height="24px" viewBox="0 0 24 24">
<defs>
<g id="Symbol_18_0_Layer2_0_FILL">
<path fill="#000000" stroke="none" d="
M 133 55
Q 130 52 130 79 130 206 137 264 149 379 190 418
L 207 409 217 404 217 299
Q 210 272 211 225
L 212 150
Q 206 67 133 55 Z"/>
</g>

<g id="Symbol_18_0_Layer1_0_FILL">
<path fill="#000000" stroke="none" d="
M 386 193
Q 394 105 352 50 313 79 310 172 309 225 315 335
L 320 395
Q 332 450 363 450 380 450 385 443
L 390 429 377 380 369 335
Q 369 310 376 266
L 386 193 Z"/>
</g>

<g id="Symbol_18_0_Layer0_0_FILL">
<path fill="#666633" fill-opacity="0" stroke="none" d="
M 480 480
L 480 0 0 0 0 480 480 480 Z"/>
</g>
</defs>

<g id="btnPause" transform="matrix( 1, 0, 0, 1, 0,0) ">
<g transform="matrix( 0.04998779296875, 0, 0, 0.04998779296875, 0,0) ">
<g transform="matrix( 1, 0, 0, 1, 0,0) ">
<use xlink:href="#Symbol_18_0_Layer2_0_FILL"/>
</g>

<g transform="matrix( 1, 0, 0, 1, 0,0) ">
<use xlink:href="#Symbol_18_0_Layer1_0_FILL"/>
</g>

<g transform="matrix( 1, 0, 0, 1, 0,0) ">
<use xlink:href="#Symbol_18_0_Layer0_0_FILL"/>
</g>
</g>
</g>
</svg>
