
<svg xmlns="http://www.w3.org/2000/svg" version="1.1" xmlns:xlink="http://www.w3.org/1999/xlink" preserveAspectRatio="none" x="0px" y="0px" width="24px" height="24px" viewBox="0 0 24 24">
<defs>
<g id="Symbol_31_0_Layer12_0_FILL">
<path fill="#000000" stroke="none" d="
M 59 177
L 58 173
Q 34 190 30 236
L 30 314 14 402 0 468 1 478 5 479 17 480 64 462 112 441 209 423
Q 247 417 247 404
L 246 397 245 396 234 394
Q 181 394 104 420
L 31 449 32 446 50 303 60 187 59 177 Z"/>
</g>

<g id="Symbol_31_0_Layer11_0_FILL">
<path fill="#000000" stroke="none" d="
M 373 1
L 372 0
Q 344 8 190 91 34 175 34 185
L 35 194 39 196 40 197 49 198 212 112
Q 374 23 374 8
L 373 1 Z"/>
</g>

<g id="Symbol_31_0_Layer10_0_FILL">
<path fill="#000000" stroke="none" d="
M 466 215
L 465 214
Q 435 222 329 304 221 388 221 408 221 416 224 418
L 232 421 377 298 468 222 466 215 Z"/>
</g>

<g id="Symbol_31_0_Layer9_0_FILL">
<path fill="#000000" stroke="none" d="
M 464 172
L 427 88
Q 372 -25 361 14
L 425 145 470 234 478 232 479 228 480 222 464 172 Z"/>
</g>

<g id="Symbol_31_0_Layer8_0_FILL">
<path fill="#000000" stroke="none" d="
M 157 289
Q 157 281 141 261
L 104 223
Q 49 177 39 207 66 225 109 266
L 147 303 155 301 156 299 157 289 Z"/>
</g>

<g id="Symbol_31_0_Layer7_0_FILL">
<path fill="#000000" stroke="none" d="
M 162 289
L 162 296
Q 207 394 215 394
L 223 391 224 389 225 379 212 331
Q 194 286 164 287
L 162 289 Z"/>
</g>

<g id="Symbol_31_0_Layer6_0_FILL">
<path fill="#000000" stroke="none" d="
M 386 60
L 385 59
Q 341 73 226 158 115 239 115 250 115 258 118 262
L 126 266
Q 151 239 276 155 387 80 387 68
L 386 60 Z"/>
</g>

<g id="Symbol_31_0_Layer5_0_FILL">
<path fill="#000000" stroke="none" d="
M 417 163
L 416 156 414 155 370 172
Q 328 191 287 212 170 272 170 295 170 302 173 304
L 181 307
Q 215 282 322 220
L 417 163 Z"/>
</g>

<g id="Symbol_31_0_Layer4_0_FILL">
<path fill="#000000" stroke="none" d="
M 67 390
L 26 389
Q 36 406 57 424
L 85 444 96 441 98 432
Q 90 411 67 390 Z"/>
</g>

<g id="Symbol_31_0_Layer3_0_FILL">
<path fill="#000000" stroke="none" d="
M 63 406
L 62 405
Q 53 405 42 415 30 425 30 431 30 439 33 441
L 41 444 56 429 64 413 63 406 Z"/>
</g>

<g id="Symbol_31_0_Layer2_0_FILL">
<path fill="#000000" stroke="none" d="
M 63 412
L 62 410 42 412
Q 34 420 34 429 34 437 37 440
L 45 444 61 432 64 420 63 412 Z"/>
</g>

<g id="Symbol_31_0_Layer1_0_FILL">
<path fill="#000000" stroke="none" d="
M 64 415
L 44 397
Q 22 380 22 409
L 28 421 34 431 32 445 31 455 33 456 43 457
Q 78 447 85 430
L 64 415 Z"/>
</g>

<g id="Symbol_31_0_Layer0_0_FILL">
<path fill="#000000" fill-opacity="0.011764705882352941" stroke="none" d="
M 0 0
L 0 480 480 480 480 0 0 0 Z"/>
</g>
</defs>

<g id="btnPencil" transform="matrix( 1, 0, 0, 1, 0,0) ">
<g transform="matrix( 0.04998779296875, 0, 0, 0.04998779296875, 0,0) ">
<g transform="matrix( 1, 0, 0, 1, 0,0) ">
<use xlink:href="#Symbol_31_0_Layer12_0_FILL"/>
</g>

<g transform="matrix( 1, 0, 0, 1, 0,0) ">
<use xlink:href="#Symbol_31_0_Layer11_0_FILL"/>
</g>

<g transform="matrix( 1, 0, 0, 1, 0,0) ">
<use xlink:href="#Symbol_31_0_Layer10_0_FILL"/>
</g>

<g transform="matrix( 1, 0, 0, 1, 0,0) ">
<use xlink:href="#Symbol_31_0_Layer9_0_FILL"/>
</g>

<g transform="matrix( 1, 0, 0, 1, 0,0) ">
<use xlink:href="#Symbol_31_0_Layer8_0_FILL"/>
</g>

<g transform="matrix( 1, 0, 0, 1, 0,0) ">
<use xlink:href="#Symbol_31_0_Layer7_0_FILL"/>
</g>

<g transform="matrix( 1, 0, 0, 1, 0,0) ">
<use xlink:href="#Symbol_31_0_Layer6_0_FILL"/>
</g>

<g transform="matrix( 1, 0, 0, 1, 0,0) ">
<use xlink:href="#Symbol_31_0_Layer5_0_FILL"/>
</g>

<g transform="matrix( 1, 0, 0, 1, 0,0) ">
<use xlink:href="#Symbol_31_0_Layer4_0_FILL"/>
</g>

<g transform="matrix( 1, 0, 0, 1, 0,0) ">
<use xlink:href="#Symbol_31_0_Layer3_0_FILL"/>
</g>

<g transform="matrix( 1, 0, 0, 1, 0,0) ">
<use xlink:href="#Symbol_31_0_Layer2_0_FILL"/>
</g>

<g transform="matrix( 1, 0, 0, 1, 0,0) ">
<use xlink:href="#Symbol_31_0_Layer1_0_FILL"/>
</g>

<g transform="matrix( 1, 0, 0, 1, 0,0) ">
<use xlink:href="#Symbol_31_0_Layer0_0_FILL"/>
</g>
</g>
</g>
</svg>
