
<svg xmlns="http://www.w3.org/2000/svg" version="1.1" xmlns:xlink="http://www.w3.org/1999/xlink" preserveAspectRatio="none" x="0px" y="0px" width="24px" height="24px" viewBox="0 0 24 24">
<defs>
<g id="Layer1_0_FILL">
<path fill="#FEFEFE" fill-opacity="0.00392156862745098" stroke="none" d="
M 24 24
L 24 0 0 0 0 24 24 24 Z"/>
</g>

<g id="Layer0_0_FILL">
<path fill="#000000" stroke="none" d="
M 55.3 23.85
Q 51.5 14 41.75 8.2 36.6 9.7 32.45 13.35 30.9 12.55 29.3 11.9 27.25 10.9 25.15 10.1 24.55 6.4 24.05 2.65 23.95 1.8 23 1.5 15.45 -1.1 7.05 -0.4 5.5 0 4.2 0.8 -0.15 3.7 0.2 9.8 -4.55 10.7 -8.85 12.75 -11.9 10.65 -14.9 8.4 -15.75 7.75 -16.65 8.2 -24.35 12.55 -29.95 19.35 -30.6 20.1 -30.65 20.95 -30.85 26.45 -26.25 31 -26.8 32.05 -27.4 33.1 -28.85 35.7 -29.5 38.35 -33.4 39.15 -36.85 39.85 -37.6 39.85 -37.8 40.35 -40.85 48.25 -39.75 57.4 -39.6 58.65 -38.8 59.65 -35.1 64.1 -28.55 63.4 -27.95 68.4 -25.6 72.8 -27.75 75.8 -29.9 78.9 -30.4 79.6 -30.1 80.2 -26.35 88.1 -19.25 94.15 -18.15 95.1 -16.65 94.9 -11.6 94.25 -7.35 90.15 -6.4 90.7 -5.45 91.3 -2.85 92.75 0 93.45 0.45 97.5 1.65 101.5 1.85 102.15 2.45 102.2 10.05 104.15 18 103.5 19.95 103.7 21.45 102.65 25.55 99.8 24.9 93.7 29.65 92.95 34 90.8 37.05 93.85 41.1 95.55 41.65 95.8 42.1 95.5 49.2 90.6 55 84.2 55.6 83.55 55.7 82.8 56.5 77.2 51.35 72.5 53.5 69.1 54.65 65.2 57.9 64.5 61.1 64.25 62.15 64.2 62.6 63.25 66.45 55.1 64.8 45.35 64.55 44 63.6 43.3 59.25 40.15 53.7 40.1 52.85 35.15 50.75 30.75 52.95 27.65 55.05 24.7 55.45 24.2 55.3 23.85
M 40.85 16.1
L 47.55 23.1
Q 46.35 24.75 45.2 26.45 44.4 27.65 44.45 28.9 44.7 35.65 46.95 42.65 47.2 43.5 47.8 44.1 51.5 48 57.65 47.8
L 57.65 57.5
Q 54.5 58.05 51.4 58.65 50.1 59 49.6 60.3 47.15 66.8 42.95 72.2
L 48.6 80.9 41.6 87.6
Q 39 85.8 36.35 84.15 35.4 83.5 34.55 83.75 29.75 85.05 25.05 85.95 16.65 87.3 17.35 96.45
L 7.65 96.45
Q 7.1 93.3 6.6 90.2 6.4 88.95 5.45 88.5 -1.25 85.6 -7.3 81.65
L -15.75 87.4 -22.45 80.4
Q -20.6 77.8 -18.65 75.35 -18.05 74.6 -18.3 73.6 -19.5 68.95 -20.95 64.25 -21.45 62.55 -22.1 61.05 -24.8 55.1 -32.55 55.7
L -32.55 46
Q -30.2 45.6 -27.8 45.25 -24.85 45.25 -23.75 42.5 -21.25 36.2 -17.45 30.4 -19.05 28.4 -20.75 26.25 -22.2 24.45 -23.5 22.6
L -16.5 15.9
Q -14 17.7 -11.45 19.5 -9.95 20.65 -8.6 19.95 -3.1 17.3 3.05 16.6 3.65 16.45 4.1 16.15 8.25 13 7.75 7.05
L 17.45 7.05
Q 18 9.9 18.4 12.7 18.65 14.35 20.05 15 26.7 17.75 32.6 21.95
L 40.85 16.1
M 8.95 37.3
Q 3.3 38.5 0.1 42.95 -3 47.2 -3.3 52.5 -3.7 58 0.05 62.15 0.9 63.15 1.8 64.05 5.8 68.05 11.65 68.5 17.1 69.1 21.5 65.8 26.35 62.3 27.85 56.55 29.35 51.15 27.6 45.75 25.85 40.5 20.65 38.35 14.9 36.05 8.95 37.3
M 8 43.65
Q 13.65 41.3 19.05 44.1 22.35 45.6 22.95 48.95 24.05 55.3 19.7 59.95 19 60.75 18.05 61.3 12.5 64.5 7.1 61.05 1.75 57.55 2.3 51.3 2.8 45.75 8 43.65 Z"/>
</g>
</defs>

<g transform="matrix( 1, 0, 0, 1, 0,0) ">
<use xlink:href="#Layer1_0_FILL"/>
</g>

<g transform="matrix( 0.2172698974609375, 0, 0, 0.2172698974609375, 9.3,0.8) ">
<use xlink:href="#Layer0_0_FILL"/>
</g>
</svg>
