
<svg xmlns="http://www.w3.org/2000/svg" version="1.1" xmlns:xlink="http://www.w3.org/1999/xlink" preserveAspectRatio="none" x="0px" y="0px" width="24px" height="24px" viewBox="0 0 24 24">
<defs>
<g id="Symbol_51_0_Layer1_0_FILL">
<path fill="#FFFFFF" fill-opacity="0.00392156862745098" stroke="none" d="
M 480 102
Q 480 0 378 0
L 102 0
Q 0 0 0 102
L 0 378
Q 0 480 102 480
L 378 480
Q 480 480 480 378
L 480 102 Z"/>
</g>

<g id="Symbol_51_0_Layer0_0_FILL">
<path fill="#000000" stroke="none" d="
M 381 381
Q 440 322 440 240 440 157 381 98 322 40 240 40 157 40 98 98 40 157 40 240 40 322 98 381 157 440 240 440 322 440 381 381 Z"/>
</g>
</defs>

<g id="ps20" transform="matrix( 1, 0, 0, 1, 0,0) ">
<g transform="matrix( 0.04998779296875, 0, 0, 0.04998779296875, 0,0) ">
<g transform="matrix( 1, 0, 0, 1, 0,0) ">
<use xlink:href="#Symbol_51_0_Layer1_0_FILL"/>
</g>

<g transform="matrix( 1, 0, 0, 1, 0,0) ">
<use xlink:href="#Symbol_51_0_Layer0_0_FILL"/>
</g>
</g>
</g>
</svg>
